# xmcd
#
# Track frame offsets:
#        150
#        11960
#        23020
#        35897
#        50732
#        63612
#        76057
#        86792
#        100235
#        111672
#        123685
#        139022
#        152252
#        165462
#        177705
#        191272
#        201810
#        214145
#        226060
#
# Disc length: 3220 seconds
#
# Revision: 6
# Processed by: cddbd v1.5.1PL2 Copyright (c) Steve Scherf et al.
# Submitted via: ExactAudioCopy v0.95b3
#
DISCID=0c0c9213
DTITLE=Sonny Boy Williamson - Down And Out Blues
DYEAR=1959
DGENRE=Blues
TTITLE0=Don't Start Me To Talkin'
TTITLE1=I Don't Know
TTITLE2=All My Love In Vain
TTITLE3=The Key (To Your Door)
TTITLE4=Keep It To Yourself
TTITLE5=Dissatisfied
TTITLE6=Fattening Frogs For Snakes
TTITLE7=Waku Up Baby
TTITLE8=Your Funeral And My Trial
TTITLE9=''99''
TTITLE10=Cross My Heart
TTITLE11=Let Me Explain
TTITLE12=I Don't Know (Alternative Take)
TTITLE13=Fattening Frogs For Snakes (Alternative Take)
TTITLE14=Your Imagination
TTITLE15=Let Your Conscience Be Your Guide
TTITLE16=Trust My Baby
TTITLE17=Bye Bye Bird
TTITLE18=My Younger Days
EXTD=YEAR: 1959
EXTT0=
EXTT1=
EXTT2=
EXTT3=
EXTT4=
EXTT5=
EXTT6=
EXTT7=
EXTT8=
EXTT9=
EXTT10=
EXTT11=
EXTT12=
EXTT13=
EXTT14=
EXTT15=
EXTT16=
EXTT17=
EXTT18=
PLAYORDER=
